<?xml version="1.0" encoding="UTF-8"?>
<svg width="42px" height="42px" viewBox="0 0 42 42" version="1.1" xmlns="http://www.w3.org/2000/svg" xmlns:xlink="http://www.w3.org/1999/xlink">
    <title>logo</title>
    <defs>
        <path d="M0,0 L42,0 L42,42 L0,42 L0,0 Z" id="path-1"></path>
    </defs>
    <g id="logo" stroke="none" fill="none" xlink:href="#path-1" fill-rule="evenodd" stroke-width="1">
        <g id="􀘞" transform="translate(1, 3)" fill="#FFFFFF">
            <path d="M38.5498038,20.2619048 C39.038186,20.0510786 39.4019809,19.7699769 39.6411886,19.4185999 C39.8803962,19.0672229 40,18.7108262 40,18.3494098 C40,17.9879935 39.8803962,17.6378714 39.6411886,17.2990435 C39.4019809,16.9602157 39.038186,16.7029575 38.5498038,16.527269 L31.7024855,14.0801791 L34.4533732,7.52197802 C34.5879275,7.21577805 34.6552046,6.89200923 34.6552046,6.55067155 C34.6552046,6.05874373 34.4857659,5.6370913 34.1468884,5.28571429 C33.808011,4.93433727 33.3744471,4.75864876 32.846197,4.75864876 C32.6817417,4.75864876 32.5060736,4.77621761 32.3191927,4.81135531 C32.1323117,4.84649301 31.9516601,4.91174875 31.7772379,5.00712251 L25.1541768,8.56105006 L21.9772005,1.40801791 C21.7678939,0.896011396 21.4738678,0.533340117 21.0951224,0.32000407 C20.716377,0.106668023 20.3525821,0 20.0037376,0 C19.6499097,0 19.2861147,0.106668023 18.9123528,0.32000407 C18.5385909,0.533340117 18.2420731,0.896011396 18.0227995,1.40801791 L14.8607737,8.56105006 L8.2227621,5.00712251 C8.05830686,4.91174875 7.88139289,4.84649301 7.69202018,4.81135531 C7.50264748,4.77621761 7.32573351,4.75864876 7.16127827,4.75864876 C6.6280446,4.75864876 6.19198904,4.93433727 5.85311157,5.28571429 C5.5142341,5.6370913 5.34479537,6.05874373 5.34479537,6.55067155 C5.34479537,6.89200923 5.41456426,7.21577805 5.55410204,7.52197802 L8.30498972,14.0801791 L1.4651467,16.527269 C0.976764468,16.6979379 0.610477792,16.955196 0.366286675,17.2990435 C0.122095558,17.6428911 0,17.995523 0,18.3569394 C0,18.713336 0.120849685,19.0672229 0.362549056,19.4185999 C0.604248427,19.7699769 0.971780976,20.0510786 1.4651467,20.2619048 L8.14800972,23.1532357 L5.05326107,30.5622711 C4.90375631,30.8935694 4.82900392,31.2248677 4.82900392,31.5561661 C4.82900392,32.0229955 4.98473806,32.4245693 5.29620632,32.7608873 C5.60767458,33.0972053 6.01258332,33.2653643 6.51093254,33.2653643 C6.68037127,33.2653643 6.86102286,33.2402659 7.05288731,33.1900692 C7.24475176,33.1398725 7.43038684,33.0620676 7.60979256,32.9566545 L15.4587927,28.3184778 L18.1050271,35.5769231 C18.3043668,36.0939493 18.5834423,36.4603853 18.9422538,36.6762312 C19.3010652,36.8920771 19.6548932,37 20.0037376,37 C20.3525821,37 20.70641,36.8920771 21.0652215,36.6762312 C21.4240329,36.4603853 21.7031085,36.0939493 21.9024481,35.5769231 L24.5561577,28.3184778 L32.3902074,32.9566545 C32.5745966,33.0620676 32.7614776,33.1386176 32.9508503,33.1863044 C33.140223,33.2339913 33.3196287,33.2578348 33.4890675,33.2578348 C33.9824332,33.2578348 34.3885878,33.0921856 34.7075313,32.7608873 C35.0264748,32.4295889 35.1859466,32.030525 35.1859466,31.5636956 C35.1859466,31.2374169 35.1062107,30.9036087 34.9467389,30.5622711 L31.8519903,23.1532357 L38.5498038,20.2619048 Z" id="Path" fill-rule="nonzero"></path>
        </g>
    </g>
</svg>